Coordinates
version=1
nRows=10
nColumns=63
inDegrees=yes

Units are S.I. units (second, meters, Newtons, ...)
If the header above contains a line with 'inDegrees', this indicates whether rotational values are in degrees (yes) or radians (no).

endheader
time	pelvis_tilt	pelvis_list	pelvis_rotation	pelvis_tx	pelvis_ty	pelvis_tz	hip_flexion_r	hip_adduction_r	hip_rotation_r	knee_angle_r	knee_angle_r_beta	ankle_angle_r	subtalar_angle_r	mtp_angle_r	hip_flexion_l	hip_adduction_l	hip_rotation_l	knee_angle_l	knee_angle_l_beta	ankle_angle_l	subtalar_angle_l	mtp_angle_l	L5_S1_Flex_Ext	L5_S1_Lat_Bending	L5_S1_axial_rotation	L4_L5_Flex_Ext	L4_L5_Lat_Bending	L4_L5_axial_rotation	L3_L4_Flex_Ext	L3_L4_Lat_Bending	L3_L4_axial_rotation	L2_L3_Flex_Ext	L2_L3_Lat_Bending	L2_L3_axial_rotation	L1_L2_Flex_Ext	L1_L2_Lat_Bending	L1_L2_axial_rotation	L1_T12_Flex_Ext	L1_T12_Lat_Bending	L1_T12_axial_rotation	Abs_r3	Abs_r2	Abs_r1	Abs_t1	Abs_t2	neck_flexion	neck_bending	neck_rotation	arm_flex_r	arm_add_r	arm_rot_r	elbow_flex_r	pro_sup_r	wrist_flex_r	wrist_dev_r	arm_flex_l	arm_add_l	arm_rot_l	elbow_flex_l	pro_sup_l	wrist_flex_l	wrist_dev_l
      0.00000000	     -0.67979577	     -2.24941624	     96.11518187	      0.12979169	      1.00967851	      0.15468213	      8.10845502	     -3.76588614	     -4.27595986	     14.27723913	      0.24918483	     19.00311482	     -6.46158949	      0.00000000	      9.73249529	      1.46915951	     -4.05136726	     15.52830310	      0.27102002	     14.59947033	      7.62490283	      0.00000000	      0.15083499	     -0.99749277	     -1.32551610	      0.28011567	     -1.32666538	     -1.40836085	      0.24780681	     -2.42530392	     -1.40836085	      0.17238931	     -2.42530392	     -1.15982658	      0.14006537	     -2.03408725	     -1.07698183	      0.08618712	     -1.54511630	     -0.99413707	      1.07739928	    -11.28383769	     -7.37212287	      0.00000000	      0.00000000	     18.01562035	     14.11900563	    -12.84744284	     42.96473516	    -10.73621356	     13.23617883	    147.94646905	     88.31190062	     12.32197184	     26.91845014	      2.22653008	    -20.14849192	     41.08680451	     31.32114318	     84.77396083	     -4.86386748	     -0.85569785
      0.01818182	     -0.50628364	     -1.85314155	     96.10271923	      0.12945453	      1.01083340	      0.15239452	      7.51431742	     -3.48115620	     -4.66836073	     14.04714298	      0.24516890	     18.61408078	     -6.04933893	      0.00000000	      8.47672483	      1.30123104	     -4.16645794	     13.90482625	      0.24268500	     14.81089415	      8.26591765	      0.00000000	      0.14764294	     -0.96775961	     -1.34367854	      0.27418770	     -1.28712028	     -1.42765845	      0.24256259	     -2.35301071	     -1.42765845	      0.16874112	     -2.35301071	     -1.17571872	      0.13710123	     -1.97345539	     -1.09173881	      0.08436318	     -1.49905963	     -1.00775891	      1.05459876	    -10.94749022	     -7.47313694	      0.00000000	      0.00000000	     17.14927733	     13.85860153	    -12.54567364	     43.39197562	    -10.25984591	     13.96829431	    148.13179340	     88.02663763	     12.16577813	     27.07018423	      1.71883001	    -19.94933251	     40.50276766	     31.36156938	     84.53696397	     -4.72775562	     -0.64996297
      0.03636364	     -0.44021956	     -1.55306134	     96.09979311	      0.12942708	      1.01156498	      0.15060112	      7.11080883	     -3.47359381	     -6.19982805	     14.02248842	      0.24473859	     19.13200106	     -3.64384796	      0.00000000	      7.53231679	      1.12577688	     -5.25095153	     12.77538246	      0.22297249	     15.09863588	     10.04522881	      0.00000000	      0.14724638	     -0.95100035	     -1.39672946	      0.27345125	     -1.26483047	     -1.48402505	      0.24191107	     -2.31226225	     -1.48402505	      0.16828788	     -2.31226225	     -1.22213828	      0.13673299	     -1.93927991	     -1.13484269	      0.08413658	     -1.47309954	     -1.04754710	      1.05176615	    -10.75790616	     -7.76819025	      0.00000000	      0.00000000	     16.42219811	     13.97420882	    -11.42145723	     43.89289555	     -9.79183956	     14.90501236	    148.27085266	     87.85522610	     11.33448879	     27.49476677	      1.05282314	    -19.85183117	     39.37688217	     31.56642545	     84.99659805	     -4.49170574	     -0.46172554
      0.05454545	     -0.42572447	     -1.29157094	     96.11561705	      0.12933303	      1.01213876	      0.14915466	      6.73344009	     -3.48441992	     -7.16866957	     13.93720166	      0.24325006	     19.69219449	     -1.93303184	      0.00000000	      6.68901228	      1.16442373	     -4.95274822	     11.73620185	      0.20483536	     15.05998229	      9.93742416	      0.00000000	      0.14114537	     -0.94620030	     -1.41605997	      0.26212107	     -1.25844641	     -1.50456372	      0.23188773	     -2.30059142	     -1.50456372	      0.16131505	     -2.30059142	     -1.23905248	      0.13106759	     -1.92949166	     -1.15054873	      0.08065047	     -1.46566427	     -1.06204498	      1.00818728	    -10.70360709	     -7.87570074	      0.00000000	      0.00000000	     15.83742189	     14.09359270	    -10.85368169	     44.20717686	     -9.54608372	     15.27354029	    148.48408777	     87.75966367	     11.20205503	     27.69772220	      0.84961393	    -19.87647454	     39.64624106	     31.53771922	     85.36608490	     -4.57238884	     -0.54027831
      0.07272727	     -0.45353908	     -1.08924171	     96.08081177	      0.12956248	      1.01249107	      0.14802130	      6.46844074	     -3.44100028	     -7.24756302	     13.87447681	      0.24215530	     20.15473749	     -1.41015878	      0.00000000	      6.04132448	      1.20006754	     -4.93828637	     10.99264606	      0.19185787	     15.07677099	     10.03493868	      0.00000000	      0.13704667	     -0.94956756	     -1.42597493	      0.25450937	     -1.26292485	     -1.51509836	      0.22515398	     -2.30877856	     -1.51509836	      0.15663064	     -2.30877856	     -1.24772806	      0.12726154	     -1.93635817	     -1.15860463	      0.07830847	     -1.47088015	     -1.06948120	      0.97891066	    -10.74169814	     -7.93084476	      0.00000000	      0.00000000	     15.37503011	     14.38511752	    -10.11631184	     44.43341390	     -9.36130673	     15.52861028	    148.67513597	     87.72253601	     11.13238553	     27.83714778	      0.67396193	    -20.00159555	     40.01363607	     31.59589338	     85.75140997	     -4.74533017	     -0.64421962
      0.09090909	     -0.51447592	     -0.91807989	     96.11452228	      0.12976933	      1.01274147	      0.14722581	      6.23806091	     -3.43410852	     -7.22970227	     13.80578714	      0.24095644	     20.65061087	     -1.07399195	      0.00000000	      5.52779215	      1.28804023	     -4.66277673	     10.42344659	      0.18192346	     15.08336414	      9.84416022	      0.00000000	      0.12914396	     -0.95945501	     -1.43968069	      0.23983325	     -1.27607516	     -1.52966074	      0.21217062	     -2.33281891	     -1.52966074	      0.14759864	     -2.33281891	     -1.25972061	      0.11992308	     -1.95652066	     -1.16974056	      0.07379286	     -1.48619581	     -1.07976052	      0.92246241	    -10.85354697	     -8.00707212	      0.00000000	      0.00000000	     14.97963943	     14.69405957	     -9.50376485	     44.54645843	     -9.21833037	     15.60757856	    148.83628338	     87.78321130	     11.35992834	     27.88533651	      0.70773067	    -20.22378805	     41.03198610	     31.56437339	     85.83608311	     -5.09492640	     -0.91263974
      0.10909091	     -0.63985254	     -0.77494848	     96.04083695	      0.13026126	      1.01293758	      0.14668921	      6.07991896	     -3.47067925	     -6.91768121	     13.75822726	      0.24012636	     21.04497245	     -1.02691753	      0.00000000	      5.10445198	      1.41196398	     -4.69790679	      9.96371913	      0.17389970	     15.19376485	      9.87352044	      0.00000000	      0.11999832	     -0.98099957	     -1.45854313	      0.22284889	     -1.30472943	     -1.54970207	      0.19714524	     -2.38520237	     -1.54970207	      0.13714608	     -2.38520237	     -1.27622523	      0.11143044	     -2.00045433	     -1.18506629	      0.06856704	     -1.51956834	     -1.09390734	      0.85713602	    -11.09726339	     -8.11197930	      0.00000000	      0.00000000	     14.68891930	     15.17811804	     -8.97866310	     44.53705131	     -8.91244388	     15.79595119	    148.94694154	     87.89282117	     11.44538211	     28.09747289	      0.39507883	    -20.43018463	     40.56777514	     31.84487762	     86.21735563	     -5.00224809	     -0.75039379
      0.12727273	     -0.60035535	     -0.66908860	     96.09819921	      0.13023106	      1.01299594	      0.14646652	      5.89998846	     -3.38562898	     -6.98547407	     13.57015457	      0.23684388	     21.21445938	     -0.74129853	      0.00000000	      4.87913979	      1.41250329	     -4.38095540	      9.72110413	      0.16966527	     15.59266048	      9.56258221	      0.00000000	      0.10842525	     -0.97967783	     -1.48935465	      0.20135652	     -1.30297152	     -1.58243932	      0.17813184	     -2.38198868	     -1.58243932	      0.12391921	     -2.38198868	     -1.30318532	      0.10068368	     -1.99775903	     -1.21010065	      0.06195419	     -1.51752096	     -1.11701599	      0.77447069	    -11.08231157	     -8.28334376	      0.00000000	      0.00000000	     14.60514353	     15.73581776	     -8.49613574	     44.41370675	     -8.70581333	     15.91914754	    148.94312369	     88.23111537	     11.69143326	     27.43555521	      0.35239678	    -20.54331313	     40.96739255	     31.92876188	     85.26943172	     -5.16667388	     -0.69693132
      0.14545455	     -0.98068112	     -0.58772133	     96.00355602	      0.13119578	      1.01330760	      0.14634029	      5.81732540	     -3.71516038	     -6.87677022	     13.58656958	      0.23713037	     21.57768775	     -0.36943288	      0.00000000	      4.60594423	      1.75828175	     -4.75300586	      9.39741700	      0.16401587	     15.64317792	     10.05067665	      0.00000000	      0.10077419	     -1.04155506	     -1.49871559	      0.18714775	     -1.38526824	     -1.59238532	      0.16556192	     -2.53243698	     -1.59238532	      0.11517482	     -2.53243698	     -1.31137614	      0.09357891	     -2.12393909	     -1.21770642	      0.05758237	     -1.61336880	     -1.12403669	      0.71981998	    -11.78227921	     -8.33540651	      0.00000000	      0.00000000	     14.29980501	     16.05857474	     -8.68788765	     44.07279626	     -8.08729852	     16.15689062	    149.02361623	     88.27447186	     11.69992580	     28.36824247	     -0.23445684	    -20.94542841	     39.17005934	     32.62055157	     86.30391556	     -4.46602342	     -0.21840680
      0.16363636	     -1.17574418	     -0.55288623	     96.02345340	      0.13151372	      1.01349782	      0.14632959	      5.73449680	     -3.89380863	     -6.98607833	     13.47880012	      0.23524944	     21.68105466	     -0.17031777	      0.00000000	      4.47477828	      1.97421327	     -4.76322387	      9.20832554	      0.16071560	     15.65041696	     10.05878801	      0.00000000	      0.09869423	     -1.07215408	     -1.51855758	      0.18328506	     -1.42596492	     -1.61346743	      0.16214475	     -2.60683542	     -1.61346743	      0.11279764	     -2.60683542	     -1.32873788	      0.09164746	     -2.18633659	     -1.23382803	      0.05639388	     -1.66076666	     -1.13891818	      0.70496302	    -12.12842134	     -8.44576169	      0.00000000	      0.00000000	     14.13474325	     16.37831053	     -8.62888438	     43.68918384	     -7.53813125	     16.27019324	    149.02629150	     88.44133751	     12.05796437	     28.35937713	     -0.57640765	    -21.19569554	     38.29688479	     33.06322653	     86.18613912	     -4.01717789	      0.01497469
